<svg width="478" height="589" viewBox="0 0 478 589" fill="none" xmlns="http://www.w3.org/2000/svg">
<path d="M36.1279 4.04248L36.1355 4.03973C36.8182 3.79144 38.7307 3.47473 43.6051 3.22443C48.3385 2.98138 55.5621 2.8067 66.5742 2.69006C88.5882 2.45697 125.604 2.45685 187.807 2.59021C331.708 2.99066 335.393 3.13379 351.39 5.88733L351.401 5.8891C370.326 9.06537 387.202 13.6877 401.122 19.4656C437.88 34.7939 463.735 70.6144 472.957 120.148L472.959 120.158C475.036 131.063 475.314 141.015 475.314 205.024C475.314 269.578 475.034 278.844 472.963 289.2L472.963 289.202C466.627 321.011 454.795 345.847 437.633 363.269L437.633 363.27C421.167 380.002 410.203 390.259 400.05 397.469C389.966 404.63 380.612 408.834 367.283 413.321C340.853 422.13 317.426 425.059 264.168 426.124L36.1279 4.04248ZM36.1279 4.04248C33.0041 5.16705 30.9024 6.40448 29.3322 7.97467C27.7682 9.53857 26.5681 11.5961 25.5143 14.6296C24.8121 16.7329 24.0025 18.4896 22.6968 19.8428C21.3442 21.2446 19.6963 21.9728 17.8218 22.4976L17.8054 22.5023L17.7889 22.5066C14.7575 23.3109 12.4559 24.3858 10.5711 25.8596C8.68908 27.3312 7.09605 29.2997 5.62032 32.0667L5.61733 32.0723L2.98015 36.9871L2.5811 299.694C2.44777 391.693 2.48111 458.054 2.66441 502.013C2.75607 523.994 2.88519 540.367 3.04958 551.541C3.13179 557.13 3.22268 561.407 3.32169 564.431C3.37123 565.944 3.42239 567.13 3.47459 568.003C3.50072 568.44 3.52638 568.786 3.55096 569.049C3.56321 569.18 3.5745 569.282 3.5844 569.36C3.5893 569.399 3.59349 569.428 3.5968 569.449C3.59829 569.459 3.59948 569.466 3.60032 569.471C4.4186 573.361 5.60702 576.224 7.23291 578.449C8.84117 580.649 10.9824 582.37 13.9348 583.823C15.6861 584.587 18.1508 585.159 28.6231 585.475C39.0765 585.79 57.1318 585.857 89.8144 585.857H161.151L166.174 582.986L166.18 582.983C170.448 580.561 173.441 576.612 175.295 570.678L175.302 570.655L175.309 570.633C175.593 569.783 176.159 569.116 176.63 568.656C177.141 568.157 177.755 567.695 178.406 567.281C179.709 566.452 181.35 565.694 183.085 565.166C188.743 563.433 194.277 557.595 195.934 551.44L195.94 551.415L195.948 551.39C195.948 551.391 195.951 551.38 195.957 551.353C195.959 551.346 195.961 551.337 195.963 551.328C195.968 551.306 195.974 551.277 195.98 551.244C195.999 551.148 196.02 551.021 196.044 550.859C196.091 550.534 196.14 550.108 196.189 549.572C196.289 548.502 196.384 547.067 196.474 545.268C196.653 541.673 196.807 536.706 196.932 530.457C197.181 517.964 197.314 500.417 197.314 478.624V410.357V407.857H199.814H210.481H221.148H223.648V410.357V419.957V426.877M36.1279 4.04248L223.648 426.877M223.648 426.877L264.164 426.124L223.648 426.877ZM475.414 289.69C469.014 321.824 457.014 347.157 439.414 365.024C406.481 398.49 395.014 406.624 368.081 415.69L475.414 289.69ZM475.414 289.69C477.548 279.024 477.814 269.424 477.814 205.024C477.814 141.157 477.548 130.89 475.414 119.69M475.414 289.69V119.69M475.414 119.69C466.081 69.5569 439.814 32.8903 402.081 17.1569C387.948 11.2903 370.881 6.6236 351.814 3.42358M475.414 119.69L351.814 3.42358M351.814 3.42358C335.548 0.623596 331.548 0.490234 187.814 0.09021L351.814 3.42358ZM288.714 220.055L289.076 245.352L295.051 244.801L295.095 244.797L295.138 244.794C297.496 244.66 299.705 244.589 301.352 244.624C302.157 244.641 302.927 244.686 303.539 244.785C303.821 244.831 304.239 244.914 304.646 245.093C304.847 245.181 305.198 245.358 305.531 245.688C305.896 246.051 306.314 246.686 306.314 247.557C306.314 248.041 306.171 248.47 306.132 248.587L306.127 248.601C306.059 248.806 305.973 249.024 305.884 249.237C305.704 249.667 305.457 250.195 305.167 250.775C304.59 251.93 303.795 253.382 302.895 254.838C301.037 258.067 299.086 260.821 296.313 263.014C293.515 265.226 290.064 266.725 285.409 267.764C276.263 269.804 261.781 270.19 236.881 270.19H198.481H195.981V267.69V207.69V147.69V145.19H198.481H209.148H219.814H222.314V147.69V156.89V163.636L241.594 163.991L241.604 163.991L241.614 163.991C251.622 164.256 257.323 164.457 261.28 165.015C265.424 165.599 267.735 166.587 270.941 168.258C273.908 169.709 276.062 171.041 277.983 173.161C279.845 175.214 281.374 177.887 283.368 181.742L283.373 181.75L283.377 181.759L288.044 190.959L288.306 191.476L288.314 192.055L288.714 220.055ZM301.38 247.029C301.401 246.968 301.393 246.978 301.377 247.039C301.378 247.035 301.38 247.032 301.38 247.029Z" fill="black" stroke="black" stroke-width="5"/>
</svg>
