<?xml version="1.0" encoding="UTF-8" standalone="no" ?>
<!DOCTYPE svg PUBLIC "-//W3C//DTD SVG 1.1//EN" "http://www.w3.org/Graphics/SVG/1.1/DTD/svg11.dtd">
<svg xmlns="http://www.w3.org/2000/svg" xmlns:xlink="http://www.w3.org/1999/xlink" version="1.1" width="478" height="589" viewBox="-3960 -3960 200 200" xml:space="preserve">
<desc>Created with Fabric.js 5.2.4</desc>
<defs>
</defs>
<rect x="0" y="0" width="100%" height="100%" fill="transparent"></rect>
<g transform="matrix(Infinity NaN NaN Infinity 0 0)" id="9e9b9cd1-6fe8-415c-9382-07901a7344dd"  >
</g>
<g transform="matrix(1 0 0 1 100 100)" id="1f9d9658-678f-4b68-b5e8-c372f596ce50"  >
<rect style="stroke: none; stroke-width: 1; stroke-dasharray: none; stroke-linecap: butt; stroke-dashoffset: 0; stroke-linejoin: miter; stroke-miterlimit: 4; fill: rgb(255,255,255); fill-rule: nonzero; opacity: 1; visibility: hidden;" vector-effect="non-scaling-stroke"  x="-100" y="-100" rx="0" ry="0" width="200" height="200" />
</g>
<g transform="matrix(0.46 0 0 -0.43 -367.02 -428.54)"  >
<path style="stroke: rgb(0,0,0); stroke-width: 0; stroke-dasharray: none; stroke-linecap: butt; stroke-dashoffset: 0; stroke-linejoin: miter; stroke-miterlimit: 4; fill: rgb(99,9,222); fill-rule: nonzero; opacity: 1;" vector-effect="non-scaling-stroke"  transform=" translate(-5143.2, -5051.34)" d="M 3616 7245 C 3566 7227 3542 7203 3525 7154 C 3515 7124 3505 7114 3480 7107 C 3431 7094 3401 7071 3377 7026 L 3355 6985 L 3352 5010 C 3350 3630 3353 3019 3360 2983 C 3373 2921 3399 2886 3448 2862 C 3482 2847 3535 2845 4025 2845 L 4565 2845 L 4607 2869 C 4644 2890 4669 2924 4684 2972 C 4687 2981 4707 2994 4730 3001 C 4779 3016 4825 3065 4839 3117 C 4846 3141 4850 3341 4850 3668 L 4850 4180 L 4930 4180 L 5010 4180 L 5010 4108 L 5010 4037 L 5333 4043 C 5733 4051 5911 4073 6112 4140 C 6314 4208 6400 4269 6647 4520 C 6779 4654 6869 4844 6917 5085 C 6933 5165 6935 5237 6935 5720 C 6935 6199 6933 6276 6917 6360 C 6847 6736 6650 7011 6367 7129 C 6261 7173 6133 7208 5990 7232 C 5868 7253 5838 7254 4760 7257 C 3827 7259 3649 7257 3616 7245 z M 5000 6081 L 5000 6012 L 5163 6009 C 5314 6005 5329 6003 5375 5979 C 5418 5958 5430 5944 5460 5886 L 5495 5817 L 5498 5607 L 5501 5397 L 5566 5403 C 5601 5405 5630 5405 5630 5401 C 5630 5398 5620 5377 5607 5356 C 5553 5262 5503 5250 5128 5250 L 4840 5250 L 4840 5700 L 4840 6150 L 4920 6150 L 5000 6150 L 5000 6081 z" stroke-linecap="round" />
</g>
<g transform="matrix(0 0 NaN NaN 453.33 0)"  >
<g style=""   >
</g>
</g>
<g transform="matrix(0 0 NaN NaN 453.33 0)"  >
<g style=""   >
</g>
</g>
</svg>